#!OML:ASF F:\VICON\USERDATA\INSTALL\rory3\rory3.ASF
:FULLY-SPECIFIED
:DEGREES
190
root 0.0846742 15.1635 -14.5462 25.0501 -1.60712 6.044
lowerback 33.2937 -0.836198 -2.61331
upperback 4.66153 -2.09218 -1.03899
thorax -11.8602 -0.842749 1.11017
lowerneck -13.9728 -1.76781 -6.12235
upperneck -17.5092 -0.950386 7.13887
head -2.94348 -0.300074 3.22041
rclavicle 2.08724e-015 -1.78906e-015
rhumerus -48.0225 -11.6919 -56.3711
rradius 16.6498
rwrist 30.5002
rhand -28.9952 3.90701
rfingers 7.12502
rthumb -2.34704 -26.0598
lclavicle 2.08724e-015 -1.78906e-015
lhumerus -50.1385 -4.15199 70.2592
lradius 18.8191
lwrist 0.94673
lhand -18.4839 24.8506
lfingers 7.12502
lthumb 7.80332 54.6866
rfemur -72.0673 3.94737 4.75285
rtibia 85.3531
rfoot -35.2347 -16.2694
rtoes -9.92585
lfemur -71.3576 -2.28374 -26.9027
ltibia 81.0009
lfoot -31.3888 2.31925
ltoes -6.52894
191
root 0.0839523 15.1123 -14.5048 25.285 -1.49952 5.9322
lowerback 33.4119 -0.821717 -2.49358
upperback 4.64681 -2.02856 -0.987498
thorax -11.9287 -0.816436 1.07828
lowerneck -13.9999 -1.79017 -6.23077
upperneck -17.7558 -0.938368 7.29398
head -3.0119 -0.29103 3.29104
rclavicle 1.90833e-014 1.19271e-014
rhumerus -47.6109 -11.4714 -57.0529
rradius 16.7783
rwrist 30.1496
rhand -28.3433 3.30828
rfingers 7.12502
rthumb -1.71745 -26.6645
lclavicle 1.90833e-014 1.19271e-014
lhumerus -50.3222 -5.12304 71.5297
lradius 19.8631
lwrist 1.96748
lhand -18.4925 25.0138
lfingers 7.12502
lthumb 7.79504 54.8501
rfemur -72.4399 3.81741 4.9714
rtibia 85.901
rfoot -35.5371 -16.6598
rtoes -10.8453
lfemur -71.684 -2.38769 -26.7026
ltibia 81.5265
lfoot -31.8011 1.98529
ltoes -6.62492
192
root 0.0751303 15.0542 -14.4794 25.6141 -1.19032 5.9113
lowerback 33.6781 -0.87908 -2.37648
upperback 4.54087 -2.05683 -0.905605
thorax -12.1559 -0.826519 1.1202
lowerneck -14.0519 -1.83355 -6.21877
upperneck -18.0122 -0.983923 7.3062
head -3.07951 -0.314767 3.29571
rclavicle 6.26172e-015 -3.18055e-015
rhumerus -47.156 -11.2904 -57.6996
rradius 16.9251
rwrist 29.5591
rhand -27.7582 2.76983
rfingers 7.12502
rthumb -1.15239 -27.2068
lclavicle 6.26172e-015 -3.18055e-015
lhumerus -50.4617 -6.01597 72.7369
lradius 20.9548
lwrist 2.99953
lhand -18.2092 25.2706
lfingers 7.12502
lthumb 8.06844 55.0966
rfemur -72.9552 3.47713 5.20995
rtibia 86.5236
rfoot -35.7136 -16.963
rtoes -11.4626
lfemur -72.2128 -2.62582 -26.5076
ltibia 82.0724
lfoot -32.0504 1.61442
ltoes -6.15895
193
root 0.0659145 14.9983 -14.453 26.0003 -1.06008 5.9122
lowerback 33.7909 -0.848624 -2.42395
upperback 4.45063 -2.03284 -0.853827
thorax -12.3004 -0.8093 1.19479
lowerneck -14.0007 -1.87725 -6.22437
upperneck -18.4205 -1.01868 7.39462
head -3.20766 -0.336589 3.33036
rclavicle -6.95746e-016 9.44227e-015
rhumerus -46.6893 -11.4201 -58.1174
rradius 16.9376
rwrist 29.4319
rhand -30.7355 4.73278
rfingers 7.12502
rthumb -4.02768 -25.2089
lclavicle -6.95746e-016 9.44227e-015
lhumerus -50.5422 -6.91695 73.9029
lradius 22.1016
lwrist 3.99904
lhand -17.9061 25.5667
lfingers 7.12502
lthumb 8.36096 55.3812
rfemur -73.6314 3.21711 5.39438
rtibia 87.1532
rfoot -35.73 -17.4194
rtoes -12.498
lfemur -72.8871 -2.7363 -26.4159
ltibia 82.6407
lfoot -32.2963 1.49594
ltoes -6.04742
194
root 0.0622662 14.9485 -14.4181 26.3236 -0.923345 5.87219
lowerback 33.8377 -0.859623 -2.34659
upperback 4.4458 -2.01809 -0.843575
thorax -12.3275 -0.804736 1.15925
lowerneck -14.1387 -1.94391 -6.24244
upperneck -18.7314 -1.06775 7.55711
head -3.27604 -0.363279 3.38826
rclavicle -8.24956e-015 -9.14409e-015
rhumerus -46.1106 -11.7891 -58.4688
rradius 16.94
rwrist 29.5289
rhand -27.8568 3.526
rfingers 7.12502
rthumb -1.24762 -26.4501
lclavicle -8.24956e-015 -9.14409e-015
lhumerus -50.5239 -7.96972 75.1119
lradius 23.2446
lwrist 4.92276
lhand -18.1551 25.449
lfingers 7.12502
lthumb 8.12064 55.2729
rfemur -74.1729 2.91479 5.64991
rtibia 87.792
rfoot -35.9868 -17.5942
rtoes -13.1573
lfemur -73.4288 -2.83557 -26.3088
ltibia 83.1997
lfoot -32.6187 1.39003
ltoes -5.93499
195
root 0.0594494 14.9014 -14.3742 26.5518 -0.678463 5.87358
lowerback 33.9737 -0.916203 -2.23366
upperback 4.45602 -2.04655 -0.817185
thorax -12.3724 -0.819949 1.14028
lowerneck -14.4434 -2.03109 -6.15693
upperneck -18.9111 -1.16595 7.61813
head -3.27969 -0.415424 3.39309
rclavicle 2.92213e-014 7.35503e-015
rhumerus -45.4534 -11.8648 -59.0739
rradius 17.0847
rwrist 29.0876
rhand -27.9898 3.83703
rfingers 7.12502
rthumb -1.37607 -26.1383
lclavicle 2.92213e-014 7.35503e-015
lhumerus -50.3445 -8.70735 76.0885
lradius 24.2818
lwrist 5.43646
lhand -18.2269 25.2623
lfingers 7.12502
lthumb 8.05136 55.089
rfemur -74.4675 2.51651 5.91731
rtibia 88.4227
rfoot -36.5024 -17.4353
rtoes -13.0015
lfemur -73.7889 -3.01084 -26.2287
ltibia 83.7492
lfoot -32.9367 1.43999
ltoes -6.09688
196
root 0.054068 14.8494 -14.3289 26.7809 -0.417594 5.93974
lowerback 34.106 -0.943733 -2.18819
upperback 4.44376 -2.06069 -0.777038
thorax -12.4386 -0.825197 1.16683
lowerneck -14.5637 -2.13715 -6.12077
upperneck -19.2317 -1.28643 7.69385
head -3.35134 -0.480096 3.41359
rclavicle 3.24019e-014 2.78299e-015
rhumerus -44.7898 -11.8926 -59.681
rradius 17.1718
rwrist 28.3839
rhand -28.1864 4.11298
rfingers 7.12502
rthumb -1.56596 -25.861
lclavicle 3.24019e-014 2.78299e-015
lhumerus -49.9948 -9.38807 76.9962
lradius 25.1454
lwrist 6.01019
lhand -18.1731 25.2525
lfingers 7.12502
lthumb 8.10329 55.0771
rfemur -74.781 2.09261 6.14483
rtibia 89.0575
rfoot -36.9325 -17.4414
rtoes -12.9189
lfemur -74.1515 -3.20475 -26.2093
ltibia 84.3305
lfoot -33.326 1.40713
ltoes -6.11094
197
root 0.0468515 14.7929 -14.2832 27.0367 -0.195364 5.97281
lowerback 34.1628 -0.947786 -2.13973
upperback 4.41621 -2.04493 -0.748902
thorax -12.4937 -0.817956 1.16607
lowerneck -14.5738 -2.22747 -6.28818
upperneck -19.5562 -1.34297 7.94716
head -3.43879 -0.505469 3.5267
rclavicle 6.36111e-015 -1.18277e-014
rhumerus -44.1626 -12.45 -59.8337
rradius 17.3165
rwrist 29.2718
rhand -26.9066 3.33037
rfingers 7.12502
rthumb -0.329927 -26.6491
lclavicle 6.36111e-015 -1.18277e-014
lhumerus -49.6325 -10.1506 77.8737
lradius 26.0379
lwrist 6.7396
lhand -18.3744 24.8969
lfingers 7.12502
lthumb 7.90896 54.729
rfemur -75.1794 1.66098 6.41199
rtibia 89.7169
rfoot -37.2815 -17.4243
rtoes -12.617
lfemur -74.5878 -3.35802 -26.1533
ltibia 84.9513
lfoot -33.7029 1.29685
ltoes -6.02958
198
root 0.0409941 14.7362 -14.2364 27.2972 0.158852 5.91712
lowerback 34.1651 -1.04344 -1.9442
upperback 4.40848 -2.08098 -0.666393
thorax -12.5066 -0.840115 1.1648
lowerneck -14.6979 -2.28334 -6.49686
upperneck -19.8406 -1.34653 8.16358
head -3.5018 -0.497623 3.63539
rclavicle -1.49089e-014 -1.17283e-014
rhumerus -43.3403 -12.4555 -60.46
rradius 17.3556
rwrist 28.8286
rhand -27.0397 3.07974
rfingers 7.12502
rthumb -0.458463 -26.8995
lclavicle -1.49089e-014 -1.17283e-014
lhumerus -49.3372 -10.809 78.7285
lradius 27.2167
lwrist 7.27132
lhand -18.3732 24.8079
lfingers 7.12502
lthumb 7.91018 54.6399
rfemur -75.5671 1.09603 6.89022
rtibia 90.4128
rfoot -37.5632 -17.563
rtoes -13.149
lfemur -75.0301 -3.58664 -25.9703
ltibia 85.5413
lfoot -33.9011 1.39844
ltoes -6.55113
